<?xml version="1.0" encoding="UTF-8"?>
<svg height="16px" viewBox="0 0 16 16" width="16px" xmlns="http://www.w3.org/2000/svg" xmlns:xlink="http://www.w3.org/1999/xlink">
    <filter id="a" height="100%" width="100%" x="0%" y="0%">
        <feColorMatrix color-interpolation-filters="sRGB" values="0 0 0 0 1 0 0 0 0 1 0 0 0 0 1 0 0 0 1 0"/>
    </filter>
    <mask id="b">
        <g filter="url(#a)">
            <rect fill-opacity="0.25" height="19.2" width="19.2" x="-1.6" y="-1.6"/>
        </g>
    </mask>
    <clipPath id="c">
        <rect height="152" width="192"/>
    </clipPath>
    <mask id="d">
        <g filter="url(#a)">
            <rect fill-opacity="0.35" height="19.2" width="19.2" x="-1.6" y="-1.6"/>
        </g>
    </mask>
    <linearGradient id="e" gradientUnits="userSpaceOnUse">
        <stop offset="0" stop-color="#c061cb" stop-opacity="0"/>
        <stop offset="1" stop-color="#c061cb"/>
    </linearGradient>
    <linearGradient id="f" gradientTransform="matrix(0.924793 0 0 0.925152 5.610148 17.09639)" x1="41.99073" x2="110.819588" xlink:href="#e" y1="228.414398" y2="228.414398"/>
    <clipPath id="g">
        <rect height="152" width="192"/>
    </clipPath>
    <mask id="h">
        <g filter="url(#a)">
            <rect fill-opacity="0.35" height="19.2" width="19.2" x="-1.6" y="-1.6"/>
        </g>
    </mask>
    <linearGradient id="i" gradientTransform="matrix(0.93912 0 0 0.938337 5.085311 14.753344)" x1="64.34687" x2="94.388145" xlink:href="#e" y1="230.745483" y2="230.745483"/>
    <clipPath id="j">
        <rect height="152" width="192"/>
    </clipPath>
    <g mask="url(#b)">
        <g clip-path="url(#c)" transform="matrix(1 0 0 1 -168 -16)">
            <path d="m 72 29 c -28.296875 0 -51.234375 22.9375 -51.234375 51.234375 c 0.03125 0.535156 0.066406 1.074219 0.113281 1.609375 c 0.867188 -27.621094 23.488282 -49.578125 51.121094 -49.625 c 27.359375 0 49.890625 21.496094 51.175781 48.824219 c 0.023438 -0.269531 0.042969 -0.539063 0.058594 -0.808594 c 0 -28.296875 -22.9375 -51.234375 -51.234375 -51.234375 z m 0 0"/>
        </g>
    </g>
    <g mask="url(#d)">
        <g clip-path="url(#g)" transform="matrix(1 0 0 1 -168 -16)">
            <path d="m 44.335938 202.199219 c 16.34375 -9.734375 37.273437 -6.617188 50.082031 7.453125 c 12.808593 14.070312 13.96875 35.21875 2.773437 50.609375" fill="none" stroke="url(#f)" stroke-linecap="round" stroke-linejoin="round" stroke-width="7" transform="matrix(1 0 0 1 8 -156)"/>
        </g>
    </g>
    <g mask="url(#h)">
        <g clip-path="url(#j)" transform="matrix(1 0 0 1 -168 -16)">
            <path d="m 44.8125 218.179688 c 9.835938 -10.464844 26.121094 -11.480469 37.183594 -2.324219 c 11.066406 9.160156 13.097656 25.332031 4.640625 36.9375" fill="none" stroke="url(#i)" stroke-linecap="round" stroke-linejoin="round" stroke-width="4" transform="matrix(1 0 0 1 8 -156)"/>
        </g>
    </g>
    <path d="m 8 0.5 c -4.140625 0 -7.5 3.359375 -7.5 7.5 s 3.359375 7.5 7.5 7.5 s 7.5 -3.359375 7.5 -7.5 s -3.359375 -7.5 -7.5 -7.5 z m 0 2.144531 c 2.957031 0 5.355469 2.398438 5.355469 5.355469 s -2.398438 5.355469 -5.355469 5.355469 s -5.355469 -2.398438 -5.355469 -5.355469 s 2.398438 -5.355469 5.355469 -5.355469 z m 0 0"/>
    <path d="m 10.851562 9.703125 l -2.640624 -1.625" fill="none" stroke="#ffffff" stroke-linecap="round" stroke-linejoin="round" stroke-width="1.5"/>
</svg>
