<?xml version="1.0" encoding="UTF-8"?>
<svg height="128px" viewBox="0 0 128 128" width="128px" xmlns="http://www.w3.org/2000/svg" xmlns:xlink="http://www.w3.org/1999/xlink">
    <defs>
        <filter id="a" height="100%" width="100%" x="0%" y="0%">
            <feColorMatrix color-interpolation-filters="sRGB" values="0 0 0 0 1 0 0 0 0 1 0 0 0 0 1 0 0 0 1 0"/>
        </filter>
        <linearGradient id="b" gradientUnits="userSpaceOnUse" x1="66.33487965776" x2="66.33487965776" y1="14.14644354101" y2="114.58564369038">
            <stop offset="0" stop-color="#424048"/>
            <stop offset="1" stop-color="#424048" stop-opacity="0.6"/>
        </linearGradient>
        <mask id="c">
            <g filter="url(#a)">
                <rect fill-opacity="0.25" height="153.6" width="153.6" x="-12.8" y="-12.8"/>
            </g>
        </mask>
        <linearGradient id="d" gradientTransform="matrix(1.776978 -3.7415 -4.12018 -1.614223 457.93232 7598.627238)" gradientUnits="userSpaceOnUse" x1="1663.874756" x2="1660.437378" y1="815.568848" y2="804.556519">
            <stop offset="0" stop-color="#3584e4"/>
            <stop offset="1" stop-color="#c061cb"/>
        </linearGradient>
        <mask id="e">
            <g filter="url(#a)">
                <rect fill-opacity="0.35" height="153.6" width="153.6" x="-12.8" y="-12.8"/>
            </g>
        </mask>
        <mask id="f">
            <g filter="url(#a)">
                <rect fill-opacity="0.35" height="153.6" width="153.6" x="-12.8" y="-12.8"/>
            </g>
        </mask>
        <clipPath id="g">
            <path d="m 0 0 h 128 v 128 h -128 z m 0 0"/>
        </clipPath>
        <mask id="h">
            <g filter="url(#a)">
                <rect fill-opacity="0.25" height="221.184" width="221.184" x="-46.592" y="-46.592"/>
            </g>
        </mask>
        <clipPath id="i">
            <rect height="152" width="192"/>
        </clipPath>
        <g id="j" clip-path="url(#i)">
            <path d="m 72 29 c -28.296875 0 -51.234375 22.9375 -51.234375 51.234375 c 0.03125 0.535156 0.066406 1.074219 0.113281 1.609375 c 0.867188 -27.621094 23.488282 -49.578125 51.121094 -49.625 c 27.359375 0 49.890625 21.496094 51.175781 48.824219 c 0.023438 -0.269531 0.042969 -0.539063 0.058594 -0.808594 c 0 -28.296875 -22.9375 -51.234375 -51.234375 -51.234375 z m 0 0"/>
        </g>
        <clipPath id="k">
            <path d="m 0 0 h 128 v 128 h -128 z m 0 0"/>
        </clipPath>
        <mask id="l">
            <g filter="url(#a)">
                <rect fill-opacity="0.35" height="221.184" width="221.184" x="-46.592" y="-46.592"/>
            </g>
        </mask>
        <linearGradient id="m" gradientUnits="userSpaceOnUse">
            <stop offset="0" stop-color="#c061cb" stop-opacity="0"/>
            <stop offset="1" stop-color="#c061cb"/>
        </linearGradient>
        <linearGradient id="n" gradientTransform="matrix(0.924793 0 0 0.925152 5.610148 17.09639)" x1="41.99073" x2="110.819588" xlink:href="#m" y1="228.414398" y2="228.414398"/>
        <clipPath id="o">
            <rect height="152" width="192"/>
        </clipPath>
        <g id="p" clip-path="url(#o)">
            <path d="m 44.335938 202.199219 c 16.34375 -9.734375 37.273437 -6.617188 50.082031 7.453125 c 12.808593 14.070312 13.96875 35.21875 2.773437 50.609375" fill="none" stroke="url(#n)" stroke-linecap="round" stroke-linejoin="round" stroke-width="7" transform="matrix(1 0 0 1 8 -156)"/>
        </g>
        <mask id="q">
            <g filter="url(#a)">
                <rect fill-opacity="0.35" height="221.184" width="221.184" x="-46.592" y="-46.592"/>
            </g>
        </mask>
        <linearGradient id="r" gradientTransform="matrix(0.93912 0 0 0.938337 5.085311 14.753344)" x1="64.34687" x2="94.388145" xlink:href="#m" y1="230.745483" y2="230.745483"/>
        <clipPath id="s">
            <rect height="152" width="192"/>
        </clipPath>
        <g id="t" clip-path="url(#s)">
            <path d="m 44.8125 218.179688 c 9.835938 -10.464844 26.121094 -11.480469 37.183594 -2.324219 c 11.066406 9.160156 13.097656 25.332031 4.640625 36.9375" fill="none" stroke="url(#r)" stroke-linecap="round" stroke-linejoin="round" stroke-width="4" transform="matrix(1 0 0 1 8 -156)"/>
        </g>
        <clipPath id="u">
            <rect height="128" width="128"/>
        </clipPath>
        <clipPath id="v">
            <rect height="128" width="128"/>
        </clipPath>
        <mask id="w">
            <g filter="url(#a)">
                <g clip-path="url(#v)" filter="url(#a)">
                    <g clip-path="url(#u)">
                        <path d="m 124 67 c 0 33.136719 -26.863281 60 -60 60 s -60 -26.863281 -60 -60 s 26.863281 -60 60 -60 s 60 26.863281 60 60 z m 0 0" fill="#0c0910"/>
                        <path d="m 64 8 c 30.929688 0 56 25.070312 56 56 v 2 c 0 30.929688 -25.070312 56 -56 56 s -56 -25.070312 -56 -56 v -2 c 0 -30.929688 25.070312 -56 56 -56 z m 0 0" fill="#d5d3cf"/>
                        <path d="m 124 64 c 0 33.136719 -26.863281 60 -60 60 s -60 -26.863281 -60 -60 s 26.863281 -60 60 -60 s 60 26.863281 60 60 z m 0 0" fill="#1b1623"/>
                        <path d="m 115.234375 64.242188 c 0 28.296874 -22.9375 51.238281 -51.234375 51.238281 s -51.234375 -22.941407 -51.234375 -51.238281 c 0 -28.292969 22.9375 -51.234376 51.234375 -51.234376 s 51.234375 22.941407 51.234375 51.234376 z m 0 0" fill="url(#b)"/>
                        <g clip-path="url(#g)">
                            <g mask="url(#h)">
                                <use transform="matrix(1 0 0 1 -8 -16)" xlink:href="#j"/>
                            </g>
                        </g>
                        <path d="m 53.589844 56.175781 l 45.417968 35.644531" fill="#613583"/>
                        <path d="m 53.589844 56.175781 s 1.304687 6.921875 1.304687 6.921875 s 6.964844 5.824219 6.964844 5.824219 s 29.777344 20.273437 29.777344 20.273437 s 7.371093 2.625 7.371093 2.625 s -4.296874 -6.539062 -4.296874 -6.539062 s -26.773438 -24.101562 -26.773438 -24.101562 s -7.316406 -5.378907 -7.316406 -5.378907 z m 0 0" fill="url(#d)"/>
                        <path d="m 69.480469 61.554688 c 1.347656 3.027343 -0.011719 6.574218 -3.035157 7.925781 c -3.027343 1.347656 -6.574218 -0.011719 -7.925781 -3.035157 c -1.347656 -3.027343 0.011719 -6.574218 3.035157 -7.925781 c 3.027343 -1.347656 6.574218 0.011719 7.925781 3.035157 z m 0 0" fill="#d5d3cf"/>
                        <path d="m 66.03125 64 c 0 1.105469 -0.894531 2.003906 -2.003906 2.003906 c -1.105469 0 -2 -0.898437 -2 -2.003906 s 0.894531 -2.003906 2 -2.003906 c 1.109375 0 2.003906 0.898437 2.003906 2.003906 z m 0 0" fill="#131c1a"/>
                        <path d="m 66.027344 64 c 0 1.105469 -0.894532 2 -2 2 c -1.101563 0 -2 -0.894531 -2 -2 s 0.898437 -2 2 -2 c 1.105468 0 2 0.894531 2 2 z m 0 0" fill="#131c1a"/>
                        <path d="m 13.980453 237.321246 l 10.488981 -0.001442" fill="#363636" stroke="#656565" stroke-linecap="round" stroke-linejoin="round" stroke-width="3.45987" transform="matrix(-0.751473 -0.433221 0.433863 -0.750361 9.162075 269.293508)"/>
                        <path d="m 13.981592 237.32042 l 10.488981 -0.001443" fill="#363636" stroke="#656565" stroke-linecap="round" stroke-linejoin="round" stroke-width="3.45987" transform="matrix(0.751473 0.433221 -0.433863 0.750361 118.895305 -142.312913)"/>
                        <path d="m 13.978636 237.31949 l 10.489547 0.000329" fill="#363636" stroke="#656565" stroke-linecap="round" stroke-linejoin="round" stroke-width="3.45987" transform="matrix(0.433863 0.750361 -0.751473 0.433221 214.598615 -87.347787)"/>
                        <path d="m 13.980182 237.321645 l 10.489547 -0.000329" fill="#363636" stroke="#656565" stroke-linecap="round" stroke-linejoin="round" stroke-width="3.45987" transform="matrix(-0.433863 0.750361 -0.751473 -0.433221 270.136786 118.27575)"/>
                        <path d="m 13.98038 237.317344 l 10.488981 0.001442" fill="#363636" stroke="#656565" stroke-linecap="round" stroke-linejoin="round" stroke-width="3.45987" transform="matrix(-0.751473 0.433221 -0.433863 -0.750361 215.090234 213.837505)"/>
                        <path d="m 13.981653 237.317903 l 10.48898 0.001442" fill="#363636" stroke="#656565" stroke-linecap="round" stroke-linejoin="round" stroke-width="3.45987" transform="matrix(0.751473 -0.433221 0.433863 0.750361 -87.032839 -86.856904)"/>
                        <path d="m 13.979709 237.321408 h 10.488977" fill="none" stroke="#656565" stroke-linecap="round" stroke-linejoin="round" stroke-width="3.45987" transform="matrix(0.867726 0 0 0.866443 8.490532 -142.133237)"/>
                        <path d="m 13.981464 237.320792 h 10.486483" fill="none" stroke="#656565" stroke-linecap="round" stroke-linejoin="round" stroke-width="3.45987" transform="matrix(0 0.866443 -0.867726 0 269.956857 8.034299)"/>
                        <path d="m 13.982821 237.31702 h 10.488977" fill="none" stroke="#656565" stroke-linecap="round" stroke-linejoin="round" stroke-width="3.45987" transform="matrix(-0.867726 0 -0 -0.866443 119.566856 269.113811)"/>
                        <g clip-path="url(#k)">
                            <g mask="url(#l)">
                                <use transform="matrix(1 0 0 1 -8 -16)" xlink:href="#p"/>
                            </g>
                            <g mask="url(#q)">
                                <use transform="matrix(1 0 0 1 -8 -16)" xlink:href="#t"/>
                            </g>
                        </g>
                    </g>
                </g>
            </g>
        </mask>
        <mask id="x">
            <g filter="url(#a)">
                <rect fill-opacity="0.8" height="184.32" width="184.32" x="-28.16" y="-28.16"/>
            </g>
        </mask>
        <linearGradient id="y" gradientTransform="matrix(0 0.37 -0.98462 0 295.38501 -30.360001)" gradientUnits="userSpaceOnUse" x1="300" x2="428" y1="235" y2="235">
            <stop offset="0" stop-color="#f9f06b"/>
            <stop offset="1" stop-color="#f5c211"/>
        </linearGradient>
        <clipPath id="z">
            <rect height="128" width="128"/>
        </clipPath>
        <clipPath id="A">
            <rect height="128" width="128"/>
        </clipPath>
    </defs>
    <path d="m 124 67 c 0 33.136719 -26.863281 60 -60 60 s -60 -26.863281 -60 -60 s 26.863281 -60 60 -60 s 60 26.863281 60 60 z m 0 0" fill="#0c0910"/>
    <path d="m 64 8 c 30.929688 0 56 25.070312 56 56 v 2 c 0 30.929688 -25.070312 56 -56 56 s -56 -25.070312 -56 -56 v -2 c 0 -30.929688 25.070312 -56 56 -56 z m 0 0" fill="#d5d3cf"/>
    <path d="m 124 64 c 0 33.136719 -26.863281 60 -60 60 s -60 -26.863281 -60 -60 s 26.863281 -60 60 -60 s 60 26.863281 60 60 z m 0 0" fill="#1b1623"/>
    <path d="m 115.234375 64.242188 c 0 28.296874 -22.9375 51.238281 -51.234375 51.238281 s -51.234375 -22.941407 -51.234375 -51.238281 c 0 -28.292969 22.9375 -51.234376 51.234375 -51.234376 s 51.234375 22.941407 51.234375 51.234376 z m 0 0" fill="url(#b)"/>
    <g mask="url(#c)">
        <use transform="matrix(1 0 0 1 -8 -16)" xlink:href="#j"/>
    </g>
    <path d="m 53.589844 56.175781 l 45.417968 35.644531" fill="#613583"/>
    <path d="m 53.589844 56.175781 s 1.304687 6.921875 1.304687 6.921875 s 6.964844 5.824219 6.964844 5.824219 s 29.777344 20.273437 29.777344 20.273437 s 7.371093 2.625 7.371093 2.625 s -4.296874 -6.539062 -4.296874 -6.539062 s -26.773438 -24.101562 -26.773438 -24.101562 s -7.316406 -5.378907 -7.316406 -5.378907 z m 0 0" fill="url(#d)"/>
    <path d="m 69.480469 61.554688 c 1.347656 3.027343 -0.011719 6.574218 -3.035157 7.925781 c -3.027343 1.347656 -6.574218 -0.011719 -7.925781 -3.035157 c -1.347656 -3.027343 0.011719 -6.574218 3.035157 -7.925781 c 3.027343 -1.347656 6.574218 0.011719 7.925781 3.035157 z m 0 0" fill="#d5d3cf"/>
    <path d="m 66.03125 64 c 0 1.105469 -0.894531 2.003906 -2.003906 2.003906 c -1.105469 0 -2 -0.898437 -2 -2.003906 s 0.894531 -2.003906 2 -2.003906 c 1.109375 0 2.003906 0.898437 2.003906 2.003906 z m 0 0" fill="#131c1a"/>
    <path d="m 66.027344 64 c 0 1.105469 -0.894532 2 -2 2 c -1.101563 0 -2 -0.894531 -2 -2 s 0.898437 -2 2 -2 c 1.105468 0 2 0.894531 2 2 z m 0 0" fill="#131c1a"/>
    <g stroke="#656565" stroke-linecap="round" stroke-linejoin="round" stroke-width="3.45987">
        <path d="m 13.980453 237.321246 l 10.488981 -0.001442" fill="#363636" transform="matrix(-0.751473 -0.433221 0.433863 -0.750361 9.162075 269.293508)"/>
        <path d="m 13.981592 237.32042 l 10.488981 -0.001443" fill="#363636" transform="matrix(0.751473 0.433221 -0.433863 0.750361 118.895305 -142.312913)"/>
        <path d="m 13.978636 237.31949 l 10.489547 0.000329" fill="#363636" transform="matrix(0.433863 0.750361 -0.751473 0.433221 214.598615 -87.347787)"/>
        <path d="m 13.980182 237.321645 l 10.489547 -0.000329" fill="#363636" transform="matrix(-0.433863 0.750361 -0.751473 -0.433221 270.136786 118.27575)"/>
        <path d="m 13.98038 237.317344 l 10.488981 0.001442" fill="#363636" transform="matrix(-0.751473 0.433221 -0.433863 -0.750361 215.090234 213.837505)"/>
        <path d="m 13.981653 237.317903 l 10.48898 0.001442" fill="#363636" transform="matrix(0.751473 -0.433221 0.433863 0.750361 -87.032839 -86.856904)"/>
        <path d="m 13.979709 237.321408 h 10.488977" fill="none" transform="matrix(0.867726 0 0 0.866443 8.490532 -142.133237)"/>
        <path d="m 13.981464 237.320792 h 10.486483" fill="none" transform="matrix(0 0.866443 -0.867726 0 269.956857 8.034299)"/>
        <path d="m 13.982821 237.31702 h 10.488977" fill="none" transform="matrix(-0.867726 0 -0 -0.866443 119.566856 269.113811)"/>
    </g>
    <g mask="url(#e)">
        <use transform="matrix(1 0 0 1 -8 -16)" xlink:href="#p"/>
    </g>
    <g mask="url(#f)">
        <use transform="matrix(1 0 0 1 -8 -16)" xlink:href="#t"/>
    </g>
    <g mask="url(#w)">
        <g clip-path="url(#A)">
            <g mask="url(#x)">
                <g clip-path="url(#z)">
                    <path d="m 128 80.640625 v 47.359375 h -128 v -47.359375 z m 0 0" fill="url(#y)"/>
                    <path d="m 13.308594 80.640625 l 47.355468 47.359375 h 21.214844 l -47.359375 -47.359375 z m 42.421875 0 l 47.363281 47.359375 h 21.214844 l -47.363282 -47.359375 z m 42.429687 0 l 29.839844 29.839844 v -21.210938 l -8.628906 -8.628906 z m -98.160156 7.90625 v 21.214844 l 18.238281 18.238281 h 21.214844 z m 0 0"/>
                </g>
            </g>
        </g>
    </g>
</svg>
